<?xml version="1.0" encoding="utf-8"?>
<!-- Generator: Adobe Illustrator 27.5.0, SVG Export Plug-In . SVG Version: 6.00 Build 0)  -->
<svg version="1.2" baseProfile="tiny" id="Layer_1" xmlns="http://www.w3.org/2000/svg" xmlns:xlink="http://www.w3.org/1999/xlink"
	 x="0px" y="0px" viewBox="0 0 1000 665" overflow="visible" xml:space="preserve">
<rect fill="#003F5F" width="1000" height="665"/>
<g>
	<path fill="#BD081C" d="M334.19,325.77l-0.02-0.02L334.19,325.77c-0.82-0.79-1.81-1.41-2.88-1.81c-1.07-0.4-2.19-0.58-3.29-0.57
		h-34.83v-26.33h49.31c1.1,0,2.23-0.17,3.29-0.57c1.07-0.4,2.06-1.02,2.87-1.81l0.01,0c0.81-0.77,1.49-1.73,1.93-2.8
		c0.44-1.06,0.64-2.21,0.64-3.31c0-1.11-0.2-2.25-0.63-3.3c-0.43-1.06-1.09-2.02-1.88-2.81l-0.01-0.01v0
		c-0.81-0.81-1.8-1.47-2.88-1.89c-1.08-0.43-2.23-0.61-3.35-0.61h-58.06c-1.11,0-2.24,0.2-3.3,0.62c-1.06,0.42-2.02,1.06-2.82,1.83
		c-0.84,0.8-1.54,1.79-1.98,2.89c-0.45,1.1-0.65,2.27-0.65,3.41v87.03c0,1.13,0.21,2.29,0.66,3.35c0.44,1.07,1.11,2.03,1.91,2.82
		c0.79,0.8,1.75,1.47,2.82,1.92c1.07,0.45,2.23,0.66,3.35,0.66c1.14,0,2.31-0.2,3.41-0.65c1.1-0.45,2.09-1.14,2.89-1.98
		c0.77-0.8,1.41-1.76,1.83-2.82c0.42-1.05,0.62-2.19,0.62-3.3v-35.08h34.83c1.12,0,2.27-0.18,3.35-0.61
		c1.08-0.42,2.08-1.08,2.89-1.9l0,0c0.79-0.79,1.45-1.75,1.88-2.81c0.43-1.06,0.63-2.2,0.63-3.3c0-1.12-0.19-2.27-0.62-3.36
		C335.71,327.56,335.02,326.56,334.19,325.77z"/>
	<polygon fill="#BD081C" points="278.33,282.38 278.33,282.38 278.33,282.38 	"/>
	<polygon fill="#BD081C" points="278.26,381.87 278.27,381.88 278.26,381.88 278.26,381.87 	"/>
	<path fill="#BD081C" d="M410.62,327.22c-3.33-5.85-8.01-10.56-13.83-13.89l0,0c-5.84-3.36-12.42-5.05-19.47-5.04
		c-7.05-0.01-13.63,1.67-19.47,5.04c-5.82,3.34-10.5,8.04-13.83,13.9c-3.36,5.88-5.04,12.48-5.03,19.52
		c-0.01,7.03,1.62,13.59,4.89,19.43c3.23,5.81,7.77,10.49,13.43,13.83h0c5.68,3.38,12.12,5.08,19.02,5.07
		c5.91,0,11.48-1.27,16.51-3.83l0,0c1.97-1,3.81-2.17,5.52-3.48c0.1,0.48,0.23,0.96,0.42,1.43c0.43,1.09,1.12,2.09,1.96,2.88l0,0
		c0.82,0.78,1.81,1.41,2.88,1.81c1.07,0.4,2.19,0.58,3.29,0.57c1.12,0,2.27-0.18,3.35-0.61c1.08-0.42,2.08-1.09,2.89-1.9
		c0.79-0.79,1.45-1.75,1.88-2.81c0.43-1.06,0.63-2.2,0.63-3.31v-29.09C415.66,339.69,413.98,333.09,410.62,327.22L410.62,327.22z
		 M388.09,365.76c-3.19,1.86-6.68,2.8-10.77,2.8c-4.09-0.01-7.61-0.94-10.85-2.81c-3.25-1.9-5.71-4.4-7.58-7.74l0-0.01
		c-1.84-3.31-2.78-6.99-2.78-11.27c0.01-4.29,0.94-7.96,2.78-11.28c1.87-3.34,4.35-5.88,7.61-7.82l0,0
		c3.23-1.9,6.74-2.85,10.82-2.86c4.08,0.01,7.56,0.95,10.74,2.85l0,0c3.22,1.94,5.68,4.48,7.57,7.83l-0.02-0.03l0.01,0.02
		c1.84,3.32,2.78,6.99,2.79,11.28c-0.01,4.29-0.94,7.96-2.78,11.28C393.75,361.36,391.3,363.87,388.09,365.76L388.09,365.76z"/>
	<polygon fill="#BD081C" points="357.31,380 357.31,380 357.21,379.94 	"/>
	<path fill="#BD081C" d="M482.58,320.26c0.36-0.96,0.62-1.96,0.62-3.11c0-0.76-0.09-1.54-0.3-2.31c-0.31-1.15-0.92-2.26-1.72-3.14
		c-0.74-0.82-1.62-1.44-2.55-1.91l0,0c-0.01-0.01-0.02-0.01-0.03-0.02c-0.07-0.04-0.15-0.08-0.22-0.12l0,0.01
		c-1.14-0.6-2.43-0.89-3.66-0.88c-1.56-0.01-3.17,0.42-4.51,1.25l-0.01,0.01c-0.71,0.43-1.37,0.99-1.91,1.64
		c-0.51,0.6-0.91,1.28-1.21,1.99l0,0l-19.98,43.74l-20.19-43.75l0,0c-0.29-0.69-0.68-1.35-1.18-1.95c-0.54-0.65-1.2-1.21-1.93-1.64
		l-0.01-0.01l0,0c-1.27-0.76-2.79-1.17-4.27-1.16c-1.26-0.01-2.57,0.3-3.73,0.92l0-0.01c-0.04,0.02-0.08,0.05-0.12,0.07
		c-0.02,0.01-0.04,0.02-0.07,0.03l0,0c-0.61,0.32-1.19,0.68-1.73,1.13c-0.89,0.73-1.68,1.67-2.2,2.77
		c-0.53,1.09-0.77,2.31-0.77,3.47c0,1.11,0.22,2.3,0.75,3.4l0,0l27.48,58.29l-0.01-0.01c0.35,0.76,0.77,1.49,1.29,2.16
		c0.77,1,1.77,1.88,2.96,2.47c1.18,0.59,2.5,0.87,3.77,0.87c0.85,0,1.72-0.11,2.56-0.36c1.26-0.37,2.44-1.06,3.39-1.94
		c0.95-0.89,1.69-1.94,2.25-3.08l0.03-0.05l27.2-58.61L482.58,320.26z"/>
	<path fill="#BD081C" d="M532.89,313.12c-2.67-1.62-5.56-2.84-8.61-3.64c-3.05-0.81-6.27-1.2-9.63-1.2
		c-6.88-0.01-13.24,1.63-18.78,4.95c-5.52,3.29-9.91,7.97-12.97,13.79c-3.09,5.85-4.6,12.5-4.6,19.72
		c-0.01,7.18,1.61,13.82,4.89,19.68l0,0c3.25,5.84,7.89,10.5,13.69,13.76c5.82,3.29,12.45,4.9,19.63,4.9c4.39,0,8.9-0.87,13.47-2.52
		c4.55-1.65,8.43-3.77,11.6-6.45l0.05-0.04l0.05-0.04c0.77-0.69,1.45-1.54,1.92-2.54c0.48-0.99,0.73-2.12,0.72-3.21
		c0-1.19-0.27-2.4-0.79-3.46c-0.52-1.07-1.25-1.99-2.08-2.75l-0.17-0.16l-0.19-0.13c-0.7-0.51-1.48-0.95-2.33-1.25
		c-0.85-0.31-1.77-0.49-2.7-0.48c-1.05,0-2.09,0.19-3.06,0.55c-0.97,0.36-1.86,0.88-2.67,1.5l-0.09,0.07l-0.08,0.07
		c-1.32,1.15-3.28,2.25-5.95,3.16c-2.64,0.9-5.19,1.34-7.71,1.34c-3.07,0-5.78-0.46-8.19-1.34c-2.41-0.88-4.55-2.18-6.5-3.95
		c-1.96-1.79-3.45-3.79-4.55-6.08c-0.54-1.12-0.98-2.31-1.33-3.58h45.33c1.04,0,2.11-0.16,3.14-0.53c1.02-0.37,1.99-0.97,2.78-1.72
		c0.81-0.77,1.47-1.74,1.88-2.79c0.41-1.05,0.58-2.14,0.58-3.21c0-6.96-1.42-13.36-4.33-19
		C542.41,320.87,538.21,316.32,532.89,313.12z M532.1,337.99h-35.69c0.34-1.04,0.72-2.03,1.17-2.96c1.06-2.15,2.43-4,4.15-5.62
		c1.7-1.6,3.57-2.76,5.68-3.55c2.12-0.79,4.5-1.21,7.24-1.21c2.69,0,5.01,0.42,7.05,1.2c2.04,0.78,3.82,1.92,5.43,3.5
		c1.64,1.61,2.91,3.43,3.88,5.56C531.44,335.87,531.8,336.9,532.1,337.99z"/>
	<path fill="#BD081C" d="M628.9,315.99v-27.32c0-1.1-0.17-2.23-0.57-3.29c-0.4-1.07-1.03-2.06-1.81-2.88l0,0
		c-0.79-0.84-1.79-1.52-2.88-1.95c-1.09-0.44-2.24-0.62-3.36-0.62c-1.12,0-2.27,0.19-3.35,0.61c-1.08,0.42-2.08,1.09-2.88,1.9
		c-0.81,0.81-1.48,1.8-1.9,2.89c-0.43,1.08-0.61,2.23-0.61,3.35v26.76c-1.65-1.25-3.43-2.36-5.32-3.32
		c-5.02-2.56-10.6-3.84-16.51-3.83c-6.9-0.01-13.34,1.69-19.02,5.07c-5.65,3.35-10.19,8.03-13.43,13.84
		c-3.27,5.84-4.9,12.4-4.89,19.43c-0.01,7.04,1.67,13.64,5.03,19.52v0c3.33,5.86,8.01,10.56,13.83,13.9h0
		c5.84,3.37,12.43,5.05,19.47,5.04c7.04,0.01,13.63-1.67,19.47-5.04c5.82-3.34,10.5-8.04,13.83-13.9
		c3.36-5.88,5.04-12.47,5.03-19.52v-29.09c0-0.36-0.01-0.71-0.06-1.09C628.95,316.29,628.93,316.14,628.9,315.99z M601.44,365.72
		c-3.19,1.89-6.66,2.84-10.74,2.85c-4.08-0.01-7.58-0.95-10.82-2.86l0,0c-3.26-1.94-5.73-4.47-7.61-7.82l-0.03-0.06l0.03,0.06
		c-1.84-3.31-2.78-6.99-2.78-11.27c0.01-4.29,0.94-7.96,2.78-11.28c1.87-3.34,4.33-5.85,7.58-7.75c3.24-1.87,6.76-2.8,10.85-2.81
		c2.85,0,5.38,0.45,7.69,1.3c2.3,0.86,4.39,2.13,6.34,3.88c1.96,1.77,3.46,3.72,4.6,5.93c1.12,2.19,1.87,4.64,2.23,7.42
		c0.02,0.3,0.07,0.63,0.16,0.97c0.01,0.18,0.03,0.39,0.04,0.66c0.02,0.45,0.03,1.01,0.03,1.67c-0.01,4.29-0.94,7.96-2.78,11.28
		C607.12,361.24,604.66,363.78,601.44,365.72l2.01,3.36L601.44,365.72z"/>
	<polygon fill="#BD081C" points="641.45,381.94 641.44,381.94 641.44,381.94 	"/>
	<polygon fill="#BD081C" points="653.92,381.87 653.92,381.88 653.92,381.88 	"/>
	<polygon fill="#BD081C" points="640.17,285.45 640.17,285.45 640.17,285.45 	"/>
	<g>
		<path fill="#FFFFFF" d="M655.07,285.45L655.07,285.45c-0.99-0.93-2.14-1.68-3.41-2.18c-1.26-0.5-2.62-0.74-3.97-0.74
			c-1.37,0-2.75,0.23-4.04,0.73c-1.29,0.49-2.47,1.25-3.47,2.19c-1.04,0.97-1.89,2.18-2.43,3.51c-0.55,1.33-0.79,2.76-0.79,4.18
			c0,1.39,0.24,2.78,0.76,4.08c0.51,1.3,1.3,2.48,2.27,3.48c0.97,1.01,2.15,1.84,3.46,2.38c1.31,0.55,2.72,0.8,4.12,0.79
			c1.4,0,2.81-0.25,4.12-0.79c1.31-0.53,2.49-1.35,3.48-2.34c0.99-0.99,1.8-2.17,2.34-3.48c0.54-1.31,0.79-2.72,0.79-4.12
			c0-1.42-0.24-2.85-0.79-4.18C656.95,287.62,656.11,286.42,655.07,285.45z"/>
	</g>
	<polygon fill="#BD081C" points="655.05,285.43 655.06,285.45 655.06,285.45 	"/>
	<polygon fill="#BD081C" points="639.98,300.69 639.98,300.69 639.97,300.69 	"/>
	<path fill="#BD081C" d="M653.92,311.47L653.92,311.47c-0.8-0.84-1.79-1.52-2.88-1.95c-1.09-0.44-2.24-0.62-3.36-0.62
		c-1.12,0-2.27,0.19-3.35,0.61c-1.08,0.42-2.08,1.09-2.88,1.9c-0.81,0.81-1.48,1.8-1.9,2.89c-0.43,1.08-0.61,2.23-0.61,3.35v58.06
		c0,1.12,0.18,2.27,0.61,3.35c0.42,1.08,1.09,2.08,1.9,2.88c0.81,0.81,1.8,1.48,2.88,1.9c1.08,0.43,2.23,0.61,3.35,0.61
		c1.12,0,2.27-0.18,3.36-0.62c1.09-0.43,2.08-1.12,2.88-1.95c0.78-0.82,1.41-1.81,1.81-2.88c0.4-1.07,0.58-2.19,0.57-3.29v-58.06
		c0-1.1-0.17-2.23-0.57-3.29C655.33,313.28,654.7,312.29,653.92,311.47z"/>
	<path fill="#BD081C" d="M722.53,353.14c-1.19-2.61-2.99-4.94-5.24-6.93c-2.36-2.07-5.3-3.71-8.77-5.04
		c-3.47-1.33-7.5-2.35-12.11-3.13l-0.01,0c-3.13-0.51-5.73-1.11-7.76-1.74c-2.03-0.63-3.47-1.33-4.26-1.88l0,0
		c-0.86-0.6-1.35-1.17-1.66-1.75c-0.31-0.58-0.49-1.22-0.49-2.15c0.01-0.77,0.16-1.3,0.49-1.88c0.33-0.57,0.9-1.21,1.89-1.88
		c0.94-0.64,2.09-1.16,3.53-1.53c1.44-0.37,3.15-0.57,5.16-0.57c3.08,0,5.68,0.5,7.9,1.43c2.22,0.93,4.09,2.28,5.74,4.17l0.04,0.05
		l0.04,0.05c0.91,0.98,2.02,1.79,3.27,2.32c1.25,0.54,2.59,0.78,3.93,0.78c0.76,0,1.54-0.08,2.33-0.28c0.71-0.19,1.43-0.49,2.1-0.93
		l0,0c0.03-0.02,0.06-0.04,0.09-0.06c0.04-0.03,0.08-0.05,0.11-0.07l0,0c1-0.66,1.92-1.53,2.58-2.64c0.71-1.18,1.05-2.57,1.04-3.89
		c0-0.94-0.19-1.81-0.47-2.62c-0.28-0.81-0.66-1.55-1.1-2.28l-0.09-0.16l-0.11-0.15c-2.88-3.84-6.71-6.85-11.28-8.95
		c-4.66-2.14-9.98-3.14-15.87-3.14c-3.81,0-7.39,0.45-10.71,1.39c-3.31,0.94-6.36,2.37-9.07,4.29c-2.79,1.97-5.02,4.48-6.49,7.42
		c-1.47,2.94-2.16,6.25-2.16,9.77c-0.01,2.88,0.64,5.67,1.92,8.2c1.28,2.53,3.17,4.75,5.52,6.66l0,0c2.4,1.96,5.29,3.53,8.62,4.79
		c3.33,1.26,7.11,2.22,11.36,2.91l0.02,0c2.98,0.47,5.51,1.05,7.54,1.71c2.04,0.66,3.57,1.4,4.6,2.11c1.07,0.73,1.71,1.44,2.08,2.08
		c0.36,0.64,0.53,1.24,0.55,2.06c-0.04,1.01-0.26,1.76-0.66,2.47c-0.41,0.72-1.05,1.43-2.09,2.15c-0.94,0.65-2.27,1.23-4.08,1.64
		c-1.8,0.41-4.04,0.65-6.71,0.64c-3.56,0-6.68-0.55-9.44-1.6c-2.75-1.05-4.76-2.45-6.28-4.21c-0.79-0.92-1.77-1.73-2.91-2.28
		c-1.14-0.55-2.41-0.83-3.65-0.82c-0.99,0-1.98,0.18-2.91,0.51c-0.92,0.33-1.77,0.81-2.54,1.39l-0.06,0.05l-0.06,0.05
		c-0.98,0.8-1.85,1.77-2.47,2.93c-0.62,1.16-0.96,2.51-0.96,3.82c0,1.05,0.24,2.06,0.63,2.95c0.39,0.89,0.91,1.68,1.51,2.4
		l0.06,0.08l0.06,0.07c3.37,3.66,7.74,6.42,12.92,8.33c5.14,1.89,10.53,2.84,16.09,2.84c5.53,0,10.64-0.89,15.22-2.77
		c4.56-1.86,8.36-4.59,11.1-8.18c1.38-1.8,2.45-3.79,3.16-5.9c0.71-2.11,1.06-4.34,1.05-6.63
		C724.31,358.62,723.72,355.75,722.53,353.14z"/>
</g>
<path fill="#F5F5F5" d="M299.79,398.09c16.51,5.85,33.44,10.12,50.6,12.58c8.57,1.28,17.19,2.17,25.83,2.67
	c8.64,0.49,17.29,0.75,25.95,0.64c34.65-0.41,69.16-5,103.81-9.47l26.05-3.27c8.7-1.01,17.42-2.01,26.17-2.82
	c17.5-1.62,35.11-2.75,52.77-2.57c8.82,0.08,17.66,0.36,26.46,1.13c8.8,0.76,17.57,1.86,26.26,3.39
	c17.36,3.17,34.43,8.01,50.45,15.12c-16.78-5.02-33.89-8.49-51.15-10.26c-8.62-0.94-17.27-1.5-25.93-1.71
	c-8.66-0.21-17.32-0.21-25.98,0.13c-34.66,1.31-69.13,6.3-103.83,10.77c-8.68,1.09-17.37,2.19-26.09,3.19
	c-8.72,0.96-17.46,1.88-26.23,2.58c-17.53,1.41-35.19,2.2-52.86,1.56c-8.83-0.31-17.66-0.85-26.44-1.92
	c-8.78-1.06-17.51-2.47-26.14-4.36C332.28,411.61,315.45,405.97,299.79,398.09z"/>
</svg>
