<?xml version="1.0" encoding="utf-8"?>
<!-- Generator: Adobe Illustrator 24.3.0, SVG Export Plug-In . SVG Version: 6.00 Build 0)  -->
<svg version="1.1" id="Layer_1" xmlns="http://www.w3.org/2000/svg" xmlns:xlink="http://www.w3.org/1999/xlink" x="0px" y="0px"
	 viewBox="0 0 1000 665" style="enable-background:new 0 0 1000 665;" xml:space="preserve">
<style type="text/css">
	.st0{fill:#FFFFFF;}
	.st1{display:none;}
	.st2{display:none;fill:#FFFFFF;}
	.st3{display:inline;fill:#F05133;}
	.st4{display:inline;fill:#FFFFFF;}
	.st5{fill:#BD081C;}
	.st6{display:inline;fill:#BD081C;}
	.st7{display:inline;fill:#FFFFFF;stroke:#FFFFFF;stroke-width:10;stroke-miterlimit:10;}
	.st8{font-family:'Comfortaa-Regular';}
	.st9{font-size:158.0115px;}
	.st10{letter-spacing:-31;}
	.st11{letter-spacing:-6;}
	.st12{fill:#F5F5F5;}
</style>
<rect x="0" class="st0" width="1000" height="665"/>
<ellipse class="st1" cx="110.23" cy="24.38" rx="18.75" ry="23.62"/>
<path class="st1" d="M153.54,50.54h-16.91l-3.33-9.19c-6.28,7.38-14.29,11.08-24.03,11.08c-8.8,0-16.24-3.06-22.33-9.19
	c-6.09-6.12-9.13-13.54-9.13-22.26c0-6.67,1.88-12.7,5.65-18.08c3.77-5.38,8.79-9.2,15.07-11.48c3.69-1.33,7.3-2,10.84-2
	c6.67,0,12.7,1.9,18.08,5.71c5.38,3.81,9.2,8.85,11.48,15.13L153.54,50.54z M124.92,20.92c0-5.52-2.24-9.81-6.71-12.89
	c-2.59-1.81-5.58-2.72-8.95-2.72c-5.5,0-9.74,2.21-12.72,6.62c-1.88,2.76-2.83,5.75-2.83,8.98c0,5.44,2.24,9.69,6.71,12.77
	c2.75,1.89,5.69,2.84,8.83,2.84c4.32,0,8.01-1.52,11.07-4.55C123.39,28.94,124.92,25.26,124.92,20.92z"/>
<path class="st1" d="M197.12-10.58l-29.09,61.13l-29.44-61.13h18.84l10.72,25.09l10.72-25.09H197.12z"/>
<path class="st1" d="M256.95,20.76c0,1.57-0.12,3.13-0.35,4.7h-46.05c1.02,3.3,2.9,5.95,5.65,7.95c2.75,2,5.85,3,9.3,3
	c4.79,0,8.75-1.84,11.9-5.54l9.66,12.84c-6.05,5.73-13.23,8.6-21.55,8.6c-8.87,0-16.35-3.04-22.44-9.11
	c-6.09-6.07-9.13-13.54-9.13-22.4c0-8.78,3.06-16.21,9.19-22.28c6.12-6.07,13.58-9.11,22.38-9.11c8.79,0,16.23,3.03,22.32,9.1
	C253.9,4.58,256.95,12,256.95,20.76z M239.16,13.56c-2.91-5.5-7.46-8.24-13.66-8.24c-6.28,0-10.88,2.75-13.78,8.24H239.16z"/>
<path class="st1" d="M325.85,20.78c0,8.78-3.04,16.23-9.13,22.35c-6.09,6.12-13.53,9.18-22.32,9.18c-8.87,0-16.35-3.04-22.44-9.11
	c-6.08-6.07-9.13-13.54-9.13-22.4c0-8.78,3.06-16.21,9.19-22.28c6.12-6.07,13.58-9.11,22.38-9.11c5.57,0,10.76,1.34,15.55,4v-37.04
	h15.9V20.78z M309.95,20.8c0-4.22-1.53-7.86-4.59-10.91c-3.06-3.05-6.71-4.58-10.95-4.58c-4.32,0-8.01,1.51-11.07,4.52
	c-3.06,3.01-4.59,6.67-4.59,10.97c0,4.3,1.53,7.98,4.59,11.03c3.06,3.05,6.75,4.58,11.07,4.58c4.32,0,7.99-1.52,11.01-4.58
	C308.43,28.78,309.95,25.11,309.95,20.8z"/>
<path class="st1" d="M351.28-24.13c0,2.67-0.9,4.93-2.71,6.77c-1.81,1.85-4.04,2.77-6.71,2.77c-2.67,0-4.93-0.92-6.77-2.77
	c-1.85-1.84-2.77-4.1-2.77-6.77c0-2.67,0.92-4.91,2.77-6.71c1.84-1.8,4.1-2.71,6.77-2.71c2.59,0,4.81,0.92,6.65,2.77
	C350.36-28.94,351.28-26.72,351.28-24.13z M349.87,50.54h-15.9v-61.13h15.9V50.54z"/>
<path class="st1" d="M403.46,32.48c0,3.78-1.26,7.2-3.77,10.27c-5.03,6.14-12.17,9.09-21.44,8.85c-3.69-0.08-7.71-0.9-12.07-2.47
	c-4.36-1.57-7.91-3.53-10.66-5.89l8.83-11.42c4.24,4,8.75,6.01,13.54,6.01h0.35c1.96,0,3.73-0.35,5.3-1.06
	c2.04-0.94,3.06-2.28,3.06-4v-0.47c-0.24-1.8-1.45-3.1-3.65-3.89c-0.87-0.16-2.71-0.51-5.54-1.06c-3.53-0.71-6.52-1.57-8.95-2.59
	c-7.15-3.06-10.72-8.44-10.72-16.14c0-7.38,3.65-12.91,10.95-16.61c3.22-1.65,6.71-2.51,10.48-2.59c3.93-0.08,8.01,0.59,12.25,2
	c4.87,1.65,8.32,3.81,10.36,6.48l-10.6,9.54c-2.75-2.83-5.73-4.24-8.95-4.24c-5.03,0-7.54,1.65-7.54,4.96v0.23
	c0,1.58,2.04,2.91,6.12,4.01c0.31,0.08,2.9,0.59,7.77,1.54c9.89,1.89,14.84,7.95,14.84,18.18V32.48z"/>
<path class="st2" d="M105.56,39.07c11.28-2.17,24.9-4.97,24.9-4.97c0.62-0.13,1.13-0.75,1.13-1.39v-3.06h-26.98
	c-1.48,0-2.68-1.2-2.68-2.67s1.2-2.67,2.68-2.67h26.98v-5.06h-26.98c-1.48,0-2.68-1.2-2.68-2.68c0-1.48,1.2-2.67,2.68-2.67h26.98
	v-2.6c0-0.64-0.51-1.26-1.13-1.39c0,0-13.62-2.81-24.9-4.97c-11.28-2.17-15.04,0.87-17.79,6.65c-2.75,5.79-6.66,5.45-6.66,5.45
	c-0.63-0.05-1.67-0.1-2.31-0.1h-1.88c-0.64,0-1.16,0.52-1.16,1.16v7.83c0,0.64,0.52,1.16,1.16,1.16h1.88c0.64,0,1.68-0.04,2.31-0.1
	c0,0,3.91-0.33,6.66,5.45C90.52,38.21,94.28,41.24,105.56,39.07z"/>
<path class="st1" d="M78.57,28.02H42.01v22.52h-15.9v-93.16h270.46v15.78H42.01v43.26h36.56V28.02z"/>
<g>
	<g>
		<path class="st5" d="M334.19,325.77l-0.02-0.02L334.19,325.77c-0.82-0.79-1.81-1.41-2.88-1.81c-1.07-0.4-2.19-0.58-3.29-0.57
			h-34.83v-26.33h49.31c1.1,0,2.23-0.17,3.29-0.57c1.07-0.4,2.06-1.02,2.87-1.81l0.01,0c0.81-0.77,1.49-1.73,1.93-2.8
			c0.44-1.06,0.64-2.21,0.64-3.31c0-1.11-0.2-2.25-0.63-3.3c-0.43-1.06-1.09-2.02-1.88-2.81l-0.01-0.01v0
			c-0.81-0.81-1.8-1.47-2.88-1.89c-1.08-0.43-2.23-0.61-3.35-0.61h-58.06c-1.11,0-2.24,0.2-3.3,0.62c-1.06,0.42-2.02,1.06-2.82,1.83
			c-0.84,0.8-1.54,1.79-1.98,2.89c-0.45,1.1-0.65,2.27-0.65,3.41v87.03c0,1.13,0.21,2.29,0.66,3.35c0.44,1.07,1.11,2.03,1.91,2.82
			c0.79,0.8,1.75,1.47,2.82,1.92c1.07,0.45,2.23,0.66,3.35,0.66c1.14,0,2.31-0.2,3.41-0.65c1.1-0.45,2.09-1.14,2.89-1.98
			c0.77-0.8,1.41-1.76,1.83-2.82c0.42-1.05,0.62-2.19,0.62-3.3v-35.08h34.83c1.12,0,2.27-0.18,3.35-0.61
			c1.08-0.42,2.08-1.08,2.89-1.9l0,0c0.79-0.79,1.45-1.75,1.88-2.81c0.43-1.06,0.63-2.2,0.63-3.3c0-1.12-0.19-2.27-0.62-3.36
			C335.71,327.56,335.02,326.56,334.19,325.77z"/>
		<polygon class="st5" points="278.33,282.38 278.33,282.38 278.33,282.38 		"/>
		<polygon class="st5" points="278.26,381.87 278.27,381.88 278.26,381.88 278.26,381.87 		"/>
		<path class="st5" d="M410.62,327.22c-3.33-5.85-8.01-10.56-13.83-13.89l0,0c-5.84-3.36-12.42-5.05-19.47-5.04
			c-7.05-0.01-13.63,1.67-19.47,5.04c-5.82,3.34-10.5,8.04-13.83,13.9c-3.36,5.88-5.04,12.48-5.03,19.52
			c-0.01,7.03,1.62,13.59,4.89,19.43c3.23,5.81,7.77,10.49,13.43,13.83h0c5.68,3.38,12.12,5.08,19.02,5.07
			c5.91,0,11.48-1.27,16.51-3.83l0,0c1.97-1,3.81-2.17,5.52-3.48c0.1,0.48,0.23,0.96,0.42,1.43c0.43,1.09,1.12,2.09,1.96,2.88l0,0
			c0.82,0.78,1.81,1.41,2.88,1.81c1.07,0.4,2.19,0.58,3.29,0.57c1.12,0,2.27-0.18,3.35-0.61c1.08-0.42,2.08-1.09,2.89-1.9
			c0.79-0.79,1.45-1.75,1.88-2.81c0.43-1.06,0.63-2.2,0.63-3.31v-29.09C415.66,339.69,413.98,333.09,410.62,327.22L410.62,327.22z
			 M388.09,365.76c-3.19,1.86-6.68,2.8-10.77,2.8c-4.09-0.01-7.61-0.94-10.85-2.81c-3.25-1.9-5.71-4.4-7.58-7.74l0-0.01
			c-1.84-3.31-2.78-6.99-2.78-11.27c0.01-4.29,0.94-7.96,2.78-11.28c1.87-3.34,4.35-5.88,7.61-7.82l0,0
			c3.23-1.9,6.74-2.85,10.82-2.86c4.08,0.01,7.56,0.95,10.74,2.85l0,0c3.22,1.94,5.68,4.48,7.57,7.83l-0.02-0.03l0.01,0.02
			c1.84,3.32,2.78,6.99,2.79,11.28c-0.01,4.29-0.94,7.96-2.78,11.28C393.75,361.36,391.3,363.87,388.09,365.76L388.09,365.76z"/>
		<polygon class="st5" points="357.31,380 357.31,380 357.21,379.94 		"/>
		<path class="st5" d="M482.58,320.26c0.36-0.96,0.62-1.96,0.62-3.11c0-0.76-0.09-1.54-0.3-2.31c-0.31-1.15-0.92-2.26-1.72-3.14
			c-0.74-0.82-1.62-1.44-2.55-1.91l0,0c-0.01-0.01-0.02-0.01-0.03-0.02c-0.07-0.04-0.15-0.08-0.22-0.12l0,0.01
			c-1.14-0.6-2.43-0.89-3.66-0.88c-1.56-0.01-3.17,0.42-4.51,1.25l-0.01,0.01c-0.71,0.43-1.37,0.99-1.91,1.64
			c-0.51,0.6-0.91,1.28-1.21,1.99l0,0l-19.98,43.74l-20.19-43.75l0,0c-0.29-0.69-0.68-1.35-1.18-1.95c-0.54-0.65-1.2-1.21-1.93-1.64
			l-0.01-0.01l0,0c-1.27-0.76-2.79-1.17-4.27-1.16c-1.26-0.01-2.57,0.3-3.73,0.92l0-0.01c-0.04,0.02-0.08,0.05-0.12,0.07
			c-0.02,0.01-0.04,0.02-0.07,0.03l0,0c-0.61,0.32-1.19,0.68-1.73,1.13c-0.89,0.73-1.68,1.67-2.2,2.77
			c-0.53,1.09-0.77,2.31-0.77,3.47c0,1.11,0.22,2.3,0.75,3.4l0,0l27.48,58.29l-0.01-0.01c0.35,0.76,0.77,1.49,1.29,2.16
			c0.77,1,1.77,1.88,2.96,2.47c1.18,0.59,2.5,0.87,3.77,0.87c0.85,0,1.72-0.11,2.56-0.36c1.26-0.37,2.44-1.06,3.39-1.94
			c0.95-0.89,1.69-1.94,2.25-3.08l0.03-0.05l27.2-58.61L482.58,320.26z"/>
		<path class="st5" d="M532.89,313.12c-2.67-1.62-5.56-2.84-8.61-3.64c-3.05-0.81-6.27-1.2-9.63-1.2
			c-6.88-0.01-13.24,1.63-18.78,4.95c-5.52,3.29-9.91,7.97-12.97,13.79c-3.09,5.85-4.6,12.5-4.6,19.72
			c-0.01,7.18,1.61,13.82,4.89,19.68l0,0c3.25,5.84,7.89,10.5,13.69,13.76c5.82,3.29,12.45,4.9,19.63,4.9
			c4.39,0,8.9-0.87,13.47-2.52c4.55-1.65,8.43-3.77,11.6-6.45l0.05-0.04l0.05-0.04c0.77-0.69,1.45-1.54,1.92-2.54
			c0.48-0.99,0.73-2.12,0.72-3.21c0-1.19-0.27-2.4-0.79-3.46c-0.52-1.07-1.25-1.99-2.08-2.75l-0.17-0.16l-0.19-0.13
			c-0.7-0.51-1.48-0.95-2.33-1.25c-0.85-0.31-1.77-0.49-2.7-0.48c-1.05,0-2.09,0.19-3.06,0.55c-0.97,0.36-1.86,0.88-2.67,1.5
			l-0.09,0.07l-0.08,0.07c-1.32,1.15-3.28,2.25-5.95,3.16c-2.64,0.9-5.19,1.34-7.71,1.34c-3.07,0-5.78-0.46-8.19-1.34
			c-2.41-0.88-4.55-2.18-6.5-3.95c-1.96-1.79-3.45-3.79-4.55-6.08c-0.54-1.12-0.98-2.31-1.33-3.58h45.33c1.04,0,2.11-0.16,3.14-0.53
			c1.02-0.37,1.99-0.97,2.78-1.72c0.81-0.77,1.47-1.74,1.88-2.79c0.41-1.05,0.58-2.14,0.58-3.21c0-6.96-1.42-13.36-4.33-19
			C542.41,320.87,538.21,316.32,532.89,313.12z M532.1,337.99h-35.69c0.34-1.04,0.72-2.03,1.17-2.96c1.06-2.15,2.43-4,4.15-5.62
			c1.7-1.6,3.57-2.76,5.68-3.55c2.12-0.79,4.5-1.21,7.24-1.21c2.69,0,5.01,0.42,7.05,1.2c2.04,0.78,3.82,1.92,5.43,3.5
			c1.64,1.61,2.91,3.43,3.88,5.56C531.44,335.87,531.8,336.9,532.1,337.99z"/>
		<path class="st5" d="M628.9,315.99v-27.32c0-1.1-0.17-2.23-0.57-3.29c-0.4-1.07-1.03-2.06-1.81-2.88l0,0
			c-0.79-0.84-1.79-1.52-2.88-1.95c-1.09-0.44-2.24-0.62-3.36-0.62c-1.12,0-2.27,0.19-3.35,0.61c-1.08,0.42-2.08,1.09-2.88,1.9
			c-0.81,0.81-1.48,1.8-1.9,2.89c-0.43,1.08-0.61,2.23-0.61,3.35v26.76c-1.65-1.25-3.43-2.36-5.32-3.32
			c-5.02-2.56-10.6-3.84-16.51-3.83c-6.9-0.01-13.34,1.69-19.02,5.07c-5.65,3.35-10.19,8.03-13.43,13.84
			c-3.27,5.84-4.9,12.4-4.89,19.43c-0.01,7.04,1.67,13.64,5.03,19.52v0c3.33,5.86,8.01,10.56,13.83,13.9h0
			c5.84,3.37,12.43,5.05,19.47,5.04c7.04,0.01,13.63-1.67,19.47-5.04c5.82-3.34,10.5-8.04,13.83-13.9
			c3.36-5.88,5.04-12.47,5.03-19.52v-29.09c0-0.36-0.01-0.71-0.06-1.09C628.95,316.29,628.93,316.14,628.9,315.99z M601.44,365.72
			c-3.19,1.89-6.66,2.84-10.74,2.85c-4.08-0.01-7.58-0.95-10.82-2.86l0,0c-3.26-1.94-5.73-4.47-7.61-7.82l-0.03-0.06l0.03,0.06
			c-1.84-3.31-2.78-6.99-2.78-11.27c0.01-4.29,0.94-7.96,2.78-11.28c1.87-3.34,4.33-5.85,7.58-7.75c3.24-1.87,6.76-2.8,10.85-2.81
			c2.85,0,5.38,0.45,7.69,1.3c2.3,0.86,4.39,2.13,6.34,3.88c1.96,1.77,3.46,3.72,4.6,5.93c1.12,2.19,1.87,4.64,2.23,7.42
			c0.02,0.3,0.07,0.63,0.16,0.97c0.01,0.18,0.03,0.39,0.04,0.66c0.02,0.45,0.03,1.01,0.03,1.67c-0.01,4.29-0.94,7.96-2.78,11.28
			C607.12,361.24,604.66,363.78,601.44,365.72l2.01,3.36L601.44,365.72z"/>
		<polygon class="st5" points="641.45,381.94 641.44,381.94 641.44,381.94 		"/>
		<polygon class="st5" points="653.92,381.87 653.92,381.88 653.92,381.88 		"/>
		<polygon class="st5" points="640.17,285.45 640.17,285.45 640.17,285.45 		"/>
		<g>
			<path class="st0" d="M655.07,285.45L655.07,285.45c-0.99-0.93-2.14-1.68-3.41-2.18c-1.26-0.5-2.62-0.74-3.97-0.74
				c-1.37,0-2.75,0.23-4.04,0.73c-1.29,0.49-2.47,1.25-3.47,2.19c-1.04,0.97-1.89,2.18-2.43,3.51c-0.55,1.33-0.79,2.76-0.79,4.18
				c0,1.39,0.24,2.78,0.76,4.08c0.51,1.3,1.3,2.48,2.27,3.48c0.97,1.01,2.15,1.84,3.46,2.38c1.31,0.55,2.72,0.8,4.12,0.79
				c1.4,0,2.81-0.25,4.12-0.79c1.31-0.53,2.49-1.35,3.48-2.34c0.99-0.99,1.8-2.17,2.34-3.48c0.54-1.31,0.79-2.72,0.79-4.12
				c0-1.42-0.24-2.85-0.79-4.18C656.95,287.62,656.11,286.42,655.07,285.45z"/>
		</g>
		<polygon class="st5" points="655.05,285.43 655.06,285.45 655.06,285.45 		"/>
		<polygon class="st5" points="639.98,300.69 639.98,300.69 639.97,300.69 		"/>
		<path class="st5" d="M653.92,311.47L653.92,311.47c-0.8-0.84-1.79-1.52-2.88-1.95c-1.09-0.44-2.24-0.62-3.36-0.62
			c-1.12,0-2.27,0.19-3.35,0.61c-1.08,0.42-2.08,1.09-2.88,1.9c-0.81,0.81-1.48,1.8-1.9,2.89c-0.43,1.08-0.61,2.23-0.61,3.35v58.06
			c0,1.12,0.18,2.27,0.61,3.35c0.42,1.08,1.09,2.08,1.9,2.88c0.81,0.81,1.8,1.48,2.88,1.9c1.08,0.43,2.23,0.61,3.35,0.61
			c1.12,0,2.27-0.18,3.36-0.62c1.09-0.43,2.08-1.12,2.88-1.95c0.78-0.82,1.41-1.81,1.81-2.88c0.4-1.07,0.58-2.19,0.57-3.29v-58.06
			c0-1.1-0.17-2.23-0.57-3.29C655.33,313.28,654.7,312.29,653.92,311.47z"/>
		<path class="st5" d="M722.53,353.14c-1.19-2.61-2.99-4.94-5.24-6.93c-2.36-2.07-5.3-3.71-8.77-5.04
			c-3.47-1.33-7.5-2.35-12.11-3.13l-0.01,0c-3.13-0.51-5.73-1.11-7.76-1.74c-2.03-0.63-3.47-1.33-4.26-1.88l0,0
			c-0.86-0.6-1.35-1.17-1.66-1.75c-0.31-0.58-0.49-1.22-0.49-2.15c0.01-0.77,0.16-1.3,0.49-1.88c0.33-0.57,0.9-1.21,1.89-1.88
			c0.94-0.64,2.09-1.16,3.53-1.53c1.44-0.37,3.15-0.57,5.16-0.57c3.08,0,5.68,0.5,7.9,1.43c2.22,0.93,4.09,2.28,5.74,4.17l0.04,0.05
			l0.04,0.05c0.91,0.98,2.02,1.79,3.27,2.32c1.25,0.54,2.59,0.78,3.93,0.78c0.76,0,1.54-0.08,2.33-0.28
			c0.71-0.19,1.43-0.49,2.1-0.93l0,0c0.03-0.02,0.06-0.04,0.09-0.06c0.04-0.03,0.08-0.05,0.11-0.07l0,0c1-0.66,1.92-1.53,2.58-2.64
			c0.71-1.18,1.05-2.57,1.04-3.89c0-0.94-0.19-1.81-0.47-2.62c-0.28-0.81-0.66-1.55-1.1-2.28l-0.09-0.16l-0.11-0.15
			c-2.88-3.84-6.71-6.85-11.28-8.95c-4.66-2.14-9.98-3.14-15.87-3.14c-3.81,0-7.39,0.45-10.71,1.39c-3.31,0.94-6.36,2.37-9.07,4.29
			c-2.79,1.97-5.02,4.48-6.49,7.42c-1.47,2.94-2.16,6.25-2.16,9.77c-0.01,2.88,0.64,5.67,1.92,8.2c1.28,2.53,3.17,4.75,5.52,6.66
			l0,0c2.4,1.96,5.29,3.53,8.62,4.79c3.33,1.26,7.11,2.22,11.36,2.91l0.02,0c2.98,0.47,5.51,1.05,7.54,1.71
			c2.04,0.66,3.57,1.4,4.6,2.11c1.07,0.73,1.71,1.44,2.08,2.08c0.36,0.64,0.53,1.24,0.55,2.06c-0.04,1.01-0.26,1.76-0.66,2.47
			c-0.41,0.72-1.05,1.43-2.09,2.15c-0.94,0.65-2.27,1.23-4.08,1.64c-1.8,0.41-4.04,0.65-6.71,0.64c-3.56,0-6.68-0.55-9.44-1.6
			c-2.75-1.05-4.76-2.45-6.28-4.21c-0.79-0.92-1.77-1.73-2.91-2.28c-1.14-0.55-2.41-0.83-3.65-0.82c-0.99,0-1.98,0.18-2.91,0.51
			c-0.92,0.33-1.77,0.81-2.54,1.39l-0.06,0.05l-0.06,0.05c-0.98,0.8-1.85,1.77-2.47,2.93c-0.62,1.16-0.96,2.51-0.96,3.82
			c0,1.05,0.24,2.06,0.63,2.95c0.39,0.89,0.91,1.68,1.51,2.4l0.06,0.08l0.06,0.07c3.37,3.66,7.74,6.42,12.92,8.33
			c5.14,1.89,10.53,2.84,16.09,2.84c5.53,0,10.64-0.89,15.22-2.77c4.56-1.86,8.36-4.59,11.1-8.18c1.38-1.8,2.45-3.79,3.16-5.9
			c0.71-2.11,1.06-4.34,1.05-6.63C724.31,358.62,723.72,355.75,722.53,353.14z"/>
	</g>
</g>
<text transform="matrix(1 0 0 1 -6.0227 20.8511)" class="st1"><tspan x="0" y="0" class="st7 st8 st9 st10">F</tspan><tspan x="45.35" y="0" class="st7 st8 st9 st11">avedis</tspan></text>
<g>
	<path class="st12" d="M299.79,398.09c16.51,5.85,33.44,10.12,50.6,12.58c8.57,1.28,17.19,2.17,25.83,2.67
		c8.64,0.49,17.29,0.75,25.95,0.64c34.65-0.41,69.16-5,103.81-9.47l26.05-3.27c8.7-1.01,17.42-2.01,26.17-2.82
		c17.5-1.62,35.11-2.75,52.77-2.57c8.82,0.08,17.66,0.36,26.46,1.13c8.8,0.76,17.57,1.86,26.26,3.39
		c17.36,3.17,34.43,8.01,50.45,15.12c-16.78-5.02-33.89-8.49-51.15-10.26c-8.62-0.94-17.27-1.5-25.93-1.71
		c-8.66-0.21-17.32-0.21-25.98,0.13c-34.66,1.31-69.13,6.3-103.83,10.77c-8.68,1.09-17.37,2.19-26.09,3.19
		c-8.72,0.96-17.46,1.88-26.23,2.58c-17.53,1.41-35.19,2.2-52.86,1.56c-8.83-0.31-17.66-0.85-26.44-1.92
		c-8.78-1.06-17.51-2.47-26.14-4.36C332.28,411.61,315.45,405.97,299.79,398.09z"/>
</g>
</svg>
